# xmcd CD database file
#
# Track frame offsets:
#	150
#	18272
#	33916
#	51660
#	67466
#	87083
#	104609
#	123767
#	142696
#	160269
#
# Disc length: 2442 seconds
#
# Revision: 0
# Processed by: cddbd v1.5.2PL0 Copyright (c) Steve Scherf et al.
# Submitted via: CDex 1.70beta2
#
DISCID=8409880a
DTITLE=ARIELLA DOMBASLE BY ERA - Arielle Dombasle By Era
DYEAR=2013
DGENRE=New Age
TTITLE0=Ave Maria
TTITLE1=Cold Song
TTITLE2=Adagio For Strings
TTITLE3=Sins
TTITLE4=Don't Take Pleasure Of My Pain
TTITLE5=After Time
TTITLE6=Just Close Your Eyes
TTITLE7=Tiesto Demoni
TTITLE8=Lost Jericho
TTITLE9=Thousand Words
EXTD=YEAR: 2013
EXTT0=
EXTT1=
EXTT2=
EXTT3=
EXTT4=
EXTT5=
EXTT6=
EXTT7=
EXTT8=
EXTT9=
PLAYORDER=
